# xmcd
#
# Track frame offsets:
#	182
#	12665
#	25345
#	39980
#	52545
#	64647
#	75922
#	88540
#	100007
#	111992
#	125637
#	139530
#	152307
#	161410
#	173120
#	185945
#	198392
#	212502
#	226422
#	236062
#
# Disc length: 3294 seconds
#
# Revision: 1
# Processed by: cddbd v1.5.1PL0 Copyright (c) Steve Scherf et al.
# Submitted via: audiograbber 1.83.01
#
DISCID=f80cdc14
DTITLE=Various Artist - Rythm and Blues Best Hit 60's disc 3
DYEAR=1900
DGENRE=
TTITLE0=Sunny
TTITLE1=You cant hurry love
TTITLE2=A change is gonna come
TTITLE3=Shop around
TTITLE4=The Happy song
TTITLE5=Hitch-hike
TTITLE6=Chain of fools
TTITLE7=Papas got a brand new bag
TTITLE8=I was made to love her
TTITLE9=Reach out Ill be there
TTITLE10=I say a little prayer
TTITLE11=I heard it through the grapevine
TTITLE12=Hit the road Jack
TTITLE13=Funky Broadway
TTITLE14=Dont play that song again
TTITLE15=I hear a symphony
TTITLE16=Mustang Sally
TTITLE17=Amen
TTITLE18=Wonderful world
TTITLE19=I got you
EXTD=
EXTT0=
EXTT1=
EXTT2=
EXTT3=
EXTT4=
EXTT5=
EXTT6=
EXTT7=
EXTT8=
EXTT9=
EXTT10=
EXTT11=
EXTT12=
EXTT13=
EXTT14=
EXTT15=
EXTT16=
EXTT17=
EXTT18=
EXTT19=
PLAYORDER=
